<svg id="Layer_1" data-name="Layer 1" xmlns="http://www.w3.org/2000/svg" viewBox="0 0 400 47.72"><defs><style>.cls-1{fill:#ef4136;}.cls-2{fill:#231f20;}</style></defs><path class="cls-1" d="M384.79,42a9.5,9.5,0,0,0,2.72-18.61L329.88,6.11a9.48,9.48,0,0,0-6.26.28L283.38,22.48,224.52,6.06a9.49,9.49,0,0,0-6.47.49L183.24,22.32,134.16,6.18a9.54,9.54,0,0,0-7,.4L93.38,22.2,51.73,6.33A9.48,9.48,0,0,0,44,6.79L10.81,24.08A9.5,9.5,0,1,0,19.6,40.93L49,25.62l41.4,15.77a9.52,9.52,0,0,0,7.37-.26l34.06-15.72,49,16.12a9.49,9.49,0,0,0,6.89-.37l35-15.86,58.63,16.36a9.53,9.53,0,0,0,6.08-.33L327.6,25.27l54.45,16.34A9.62,9.62,0,0,0,384.79,42Z"/><path class="cls-2" d="M15.23,47.72A15.29,15.29,0,0,1,1.72,39.54,15.23,15.23,0,0,1,8.17,19L41.31,1.73A15.21,15.21,0,0,1,53.76,1L93.17,16,124.82,1.4A15.15,15.15,0,0,1,136,.77l47,15.43L215.69,1.36A15.14,15.14,0,0,1,226.06.57l57,15.9L321.5,1.09a15.25,15.25,0,0,1,10-.44l57.63,17.29a15.2,15.2,0,0,1,10.2,18.93,15.29,15.29,0,0,1-14.56,10.84,15.06,15.06,0,0,1-4.37-.64L327.87,31.31l-38.3,15.31a15.34,15.34,0,0,1-9.72.54L223.2,31.35l-33.14,15A15.21,15.21,0,0,1,179,47L132.13,31.53l-32,14.78a15.31,15.31,0,0,1-11.79.41l-39-14.86L22.24,46A15.11,15.11,0,0,1,15.23,47.72ZM48.35,11.41a3.88,3.88,0,0,0-1.76.43L13.45,29.13A3.8,3.8,0,0,0,17,35.88l31.63-16.5L92.38,36.06a3.83,3.83,0,0,0,3-.11l36.1-16.66L182.6,36.12a3.84,3.84,0,0,0,2.75-.15l36.93-16.72L282.9,36.17a3.85,3.85,0,0,0,2.44-.14l42-16.79,56.36,16.91a3.87,3.87,0,0,0,4.73-2.55,3.8,3.8,0,0,0-2.54-4.74L328.24,11.57a3.89,3.89,0,0,0-2.5.11l-42,16.82L223,11.55a3.79,3.79,0,0,0-2.59.2L183.57,28.43,132.38,11.6a3.82,3.82,0,0,0-2.78.16l-36,16.62L49.7,11.66A3.75,3.75,0,0,0,48.35,11.41Z"/></svg>