<svg id="Layer_1" data-name="Layer 1" xmlns="http://www.w3.org/2000/svg" viewBox="0 0 400 70.67"><defs><style>.cls-1{fill:#9a734a;}.cls-2{fill:#7d5736;}.cls-3{fill:#7b5738;}.cls-4{fill:#8f6843;}.cls-5{fill:#7b5635;}.cls-6{fill:#231f20;}</style></defs><path class="cls-1" d="M375.15,10.78H24.85A14.08,14.08,0,0,0,10.78,24.85a35.08,35.08,0,0,0,35,35H354.18a35.08,35.08,0,0,0,35-35A14.08,14.08,0,0,0,375.15,10.78Z"/><circle class="cls-2" cx="70.91" cy="22.8" r="5.28"/><circle class="cls-3" cx="45.11" cy="34.56" r="4.5"/><circle class="cls-4" cx="118.52" cy="36.98" r="8.91"/><circle class="cls-3" cx="261.99" cy="25.81" r="6.64"/><path class="cls-5" d="M360.11,24.85h0a40.39,40.39,0,0,1-20.28,35h14.35a35.08,35.08,0,0,0,35-35,14.08,14.08,0,0,0-14.07-14.07H354.07A19.41,19.41,0,0,1,360.11,24.85Z"/><path class="cls-6" d="M354.18,70.67H45.82A45.87,45.87,0,0,1,0,24.85,24.88,24.88,0,0,1,24.85,0h350.3A24.88,24.88,0,0,1,400,24.85,45.87,45.87,0,0,1,354.18,70.67ZM24.85,10.78A14.08,14.08,0,0,0,10.78,24.85a35.08,35.08,0,0,0,35,35H354.18a35.08,35.08,0,0,0,35-35,14.08,14.08,0,0,0-14.07-14.07Z"/></svg>